# xmcd
#
# Track frame offsets:
# 150
# 16671
# 39088
# 59791
# 82057
# 105141
# 125441
# 140648
# 153996
# 177696
#
# Disc length: 2649 seconds
#
#
# Revision: 0
# Processed by: cddbd v1.4PL0 Copyright (c) Steve Scherf et al.
# Submitted via: FreeRIP 2.00 
#
DISCID=7e0a570a
DTITLE=Tina Ahlin - Det går bra ändå
DYEAR=2002
DGENRE=Folk
TTITLE0=Rubaiyat
TTITLE1=Som gjord av sten
TTITLE2=Hunger
TTITLE3=Vingar
TTITLE4=När jag låser mitt sommerhus
TTITLE5=En herre som älskar tystnad
TTITLE6=Om ett sammanträde
TTITLE7=Omnia voncit amore
TTITLE8=Det går bra ändå
TTITLE9=Ensam på havet - Ett langt farväl
EXTD=
EXTT0=
EXTT1=
EXTT2=
EXTT3=
EXTT4=
EXTT5=
EXTT6=
EXTT7=
EXTT8=
EXTT9=
PLAYORDER=
